<svg xmlns="http://www.w3.org/2000/svg" viewBox="0 0 1024 1024"><defs><linearGradient id="bg" x1="0" y1="0" x2="1" y2="1"><stop offset="0" stop-color="#FF8A1F"/><stop offset="1" stop-color="#FF4F0A"/></linearGradient></defs><rect width="1024" height="1024" rx="230" fill="url(#bg)"/><g transform="translate(512 512) scale(1.0) translate(-540 -495)"><path fill="#fff" d="M500 238C565 238 620 247 668 266C690 275 694 302 678 318L652 344C625 370 585 386 515 383C420 383 350 448 350 536C350 625 412 690 500 690C562 690 616 652 638 590L498 590L560 472L792 472L792 548C792 718 662 830 500 830C330 830 205 705 205 535C205 365 330 238 500 238Z"/><path fill="#fff" d="M772 160C784 232 802 250 874 262C802 274 784 292 772 364C760 292 742 274 670 262C742 250 760 232 772 160Z"/></g></svg>
